<svg width="348" height="248" viewBox="0 0 348 248" fill="none" xmlns="http://www.w3.org/2000/svg">
<path d="M11 73.2723V39.5909C11 38.7273 11.5426 37 13.7128 37L207.35 37C207.802 37 208.706 37.7773 208.706 40.8863V44.7727C208.706 48.2272 210.334 55.1362 216.845 55.1362C219.557 55.1362 224.983 53.0635 224.983 44.7727C224.983 43.1934 224.983 41.9149 224.983 40.8863C224.983 37.7773 226.502 37 227.262 37L263.287 37C264.191 37 266 37.5182 266 39.5909V75.8631C262.383 77.5904 255.149 83.6358 255.149 93.9993C255.149 104.363 262.383 110.408 266 112.135V148.408C266 150.48 264.191 150.999 263.287 150.999H230.3C229.54 150.999 222.65 151.224 222.65 146.042C222.65 140.86 222.65 138.044 222.65 138.044C222.65 135.453 221.022 130.272 214.512 130.272C208.001 130.272 218.201 130.272 215.488 130.272C212.776 130.272 207.35 131.826 207.35 138.044C207.35 140.418 207.35 144.136 207.35 146.042C207.35 151.224 202.702 150.999 202.25 150.999H13.7128C12.8085 150.999 11 150.48 11 148.408C11 146.335 11 125.09 11 114.726C16.4255 112.999 27.2766 106.435 27.2766 93.9993C27.2766 81.5631 16.4255 74.9995 11 73.2723Z" stroke="#FE0000" stroke-width="6"/>
<path d="M59.5556 132H69.7778C71.7961 132 73.3368 131.077 74.2687 129.764C75.0905 128.606 75.3333 127.311 75.3333 126.407V100.889H97.8889C99.9072 100.889 101.448 99.966 102.38 98.653C103.202 97.495 103.444 96.1998 103.444 95.2963V90.1111C103.444 88.1144 102.56 86.567 101.256 85.6145C100.102 84.7719 98.8037 84.5185 97.8889 84.5185H75.3333V74.963H100.444C102.463 74.963 104.003 74.0401 104.935 72.727C105.757 71.5691 106 70.2739 106 69.3704V61.5926C106 59.5959 105.115 58.0485 103.811 57.096C102.658 56.2534 101.359 56 100.444 56H59.5556C57.5373 56 55.9965 56.9229 55.0646 58.2359C54.2428 59.3939 54 60.6891 54 61.5926V126.407C54 128.404 54.8848 129.952 56.1888 130.904C57.3423 131.747 58.6407 132 59.5556 132ZM75.3305 84.8718C75.3305 84.8717 75.3308 84.8729 75.3312 84.8758C75.3306 84.8733 75.3305 84.872 75.3305 84.8718ZM75.3333 84.8842V84.884C75.334 84.8859 75.3342 84.8867 75.3341 84.8865C75.334 84.8863 75.3337 84.8855 75.3333 84.8842Z" stroke="#FE0000" stroke-width="6"/>
<path d="M159.945 126.838L167.481 95.522V126.407C167.481 128.476 168.455 130.028 169.791 130.95C170.968 131.763 172.279 132 173.185 132H181.296C183.304 132 184.875 131.138 185.858 129.829C186.732 128.665 187 127.346 187 126.407V61.5926C187 59.5237 186.026 57.972 184.691 57.0498C183.513 56.2369 182.202 56 181.296 56H165.074C163.067 56 161.495 56.8619 160.512 58.1709C159.774 59.1533 159.469 60.2467 159.391 61.1282L148.846 101.577C147.049 95.1069 144.459 85.6586 142.289 77.4806C141.163 73.2408 140.155 69.356 139.429 66.4088C139.066 64.9327 138.778 63.7114 138.583 62.8064C138.485 62.3522 138.415 62.0003 138.371 61.7472C138.346 61.6028 138.336 61.5248 138.333 61.497C138.277 58.2851 135.45 56 132.63 56H113.704C111.696 56 110.125 56.8619 109.142 58.1709C108.268 59.3346 108 60.6542 108 61.5926V126.407C108 128.476 108.974 130.028 110.309 130.95C111.487 131.763 112.798 132 113.704 132H124.519C126.526 132 128.098 131.138 129.08 129.829C129.954 128.665 130.222 127.346 130.222 126.407V95.3667C131.542 100.455 133.296 107.326 134.786 113.383C135.629 116.812 136.384 119.964 136.926 122.382C137.198 123.592 137.412 124.598 137.557 125.353C137.665 125.918 137.71 126.227 137.728 126.353C137.739 126.423 137.741 126.437 137.741 126.407C137.741 128.476 138.714 130.028 140.05 130.95C141.228 131.763 142.538 132 143.444 132H154.259C156.266 132 157.838 131.138 158.821 129.829C159.568 128.834 159.873 127.725 159.945 126.838Z" stroke="#FE0000" stroke-width="6"/>
<path d="M214.667 87H217.333C218.193 87 219.462 86.7924 220.619 86.0504C221.938 85.2046 223 83.7071 223 81.625V67.375C223 66.423 222.707 65.1265 221.8 64.0046C220.79 62.7551 219.239 62 217.333 62H214.667C213.807 62 212.538 62.2076 211.381 62.9496C210.062 63.7954 209 65.2929 209 67.375V81.625C209 82.577 209.293 83.8735 210.2 84.9954C211.21 86.2449 212.761 87 214.667 87Z" stroke="#FE0000" stroke-width="6"/>
<path d="M214.667 123H217.333C218.193 123 219.462 122.792 220.619 122.05C221.938 121.205 223 119.707 223 117.625V103.375C223 102.423 222.707 101.126 221.8 100.005C220.79 98.7551 219.239 98 217.333 98H214.667C213.807 98 212.538 98.2076 211.381 98.9496C210.062 99.7954 209 101.293 209 103.375V117.625C209 118.577 209.293 119.874 210.2 120.995C211.21 122.245 212.761 123 214.667 123Z" stroke="#FE0000" stroke-width="6"/>
</svg>
