<svg width="830" height="193" viewBox="0 0 830 193" fill="none" xmlns="http://www.w3.org/2000/svg">
<path d="M273.5 159V43C273.5 34.7157 266.784 28 258.5 28H38C29.7157 28 23 34.7157 23 43V159C23 167.284 29.7157 174 38 174H258.5C266.784 174 273.5 167.284 273.5 159Z" fill="#ED1C22"/>
<path d="M64 64H132V44.5H64V64Z" fill="white"/>
<path d="M60 109.5H125V89.5H60V109.5Z" fill="white"/>
<path d="M157.5 44H169.5L190.5 126.5L211 44H222H224V83H222L202 157H178.5L157.5 80.5H155.5V44H157.5Z" fill="white"/>
<path d="M63.2998 157V44.5" stroke="white" stroke-width="23.5"/>
<path d="M146 158V44" stroke="white" stroke-width="23.5"/>
<path d="M234 158V44" stroke="white" stroke-width="23.5"/>
<path d="M303.976 102.6V125H292.856V71.88H330.696V81.16H303.976V93.24H327.336V102.6H303.976ZM356.438 101.48C356.384 100.04 356.118 98.7867 355.638 97.72C355.211 96.6 354.624 95.6933 353.878 95C353.131 94.2533 352.278 93.72 351.318 93.4C350.358 93.0267 349.371 92.84 348.358 92.84C346.278 92.84 344.464 93.6133 342.918 95.16C341.424 96.6533 340.571 98.76 340.358 101.48H356.438ZM340.038 108.04C340.198 111.027 341.051 113.4 342.598 115.16C344.198 116.92 346.278 117.8 348.838 117.8C350.544 117.8 352.038 117.427 353.318 116.68C354.651 115.88 355.504 114.787 355.878 113.4H366.598C365.371 117.453 363.238 120.573 360.198 122.76C357.158 124.947 353.531 126.04 349.318 126.04C336.198 126.04 329.638 118.893 329.638 104.6C329.638 101.56 330.064 98.8133 330.918 96.36C331.771 93.9067 332.998 91.8 334.598 90.04C336.251 88.28 338.251 86.9467 340.598 86.04C342.944 85.08 345.638 84.6 348.678 84.6C354.758 84.6 359.344 86.5467 362.438 90.44C365.584 94.3333 367.158 100.2 367.158 108.04H340.038ZM396.672 101.48C396.619 100.04 396.352 98.7867 395.872 97.72C395.445 96.6 394.859 95.6933 394.112 95C393.365 94.2533 392.512 93.72 391.552 93.4C390.592 93.0267 389.605 92.84 388.592 92.84C386.512 92.84 384.699 93.6133 383.152 95.16C381.659 96.6533 380.805 98.76 380.592 101.48H396.672ZM380.272 108.04C380.432 111.027 381.285 113.4 382.832 115.16C384.432 116.92 386.512 117.8 389.072 117.8C390.779 117.8 392.272 117.427 393.552 116.68C394.885 115.88 395.739 114.787 396.112 113.4H406.832C405.605 117.453 403.472 120.573 400.432 122.76C397.392 124.947 393.765 126.04 389.552 126.04C376.432 126.04 369.872 118.893 369.872 104.6C369.872 101.56 370.299 98.8133 371.152 96.36C372.005 93.9067 373.232 91.8 374.832 90.04C376.485 88.28 378.485 86.9467 380.832 86.04C383.179 85.08 385.872 84.6 388.912 84.6C394.992 84.6 399.579 86.5467 402.672 90.44C405.819 94.3333 407.392 100.2 407.392 108.04H380.272ZM410.986 125V71.24H421.386V125H410.986ZM471.912 125V101.16C471.912 98.76 471.352 96.8133 470.232 95.32C469.112 93.8267 467.619 93.08 465.752 93.08C463.832 93.08 462.232 93.88 460.952 95.48C459.725 97.08 459.112 99.08 459.112 101.48V125H448.712V101.32C448.712 99.72 448.605 98.4133 448.392 97.4C448.179 96.3867 447.805 95.5867 447.272 95C446.792 94.4133 446.152 94.0133 445.352 93.8C444.552 93.5333 443.592 93.4 442.472 93.4C438.259 93.4 436.152 95.96 436.152 101.08V125H425.752V85.64H435.512V91.4C436.845 88.7867 438.445 87 440.312 86.04C442.179 85.08 444.419 84.6 447.032 84.6C448.365 84.6 449.539 84.7067 450.552 84.92C451.619 85.1333 452.552 85.5067 453.352 86.04C454.205 86.52 455.005 87.16 455.752 87.96C456.499 88.76 457.245 89.72 457.992 90.84C459.059 88.6533 460.472 87.08 462.232 86.12C463.992 85.1067 466.125 84.6 468.632 84.6C470.605 84.6 472.419 84.9467 474.072 85.64C475.725 86.28 477.139 87.2133 478.312 88.44C479.485 89.6133 480.392 91 481.032 92.6C481.725 94.2 482.072 95.9067 482.072 97.72V125H471.912Z" fill="white"/>
</svg>
